<mxfile host="app.diagrams.net" modified="2021-12-10T08:16:03.735Z" agent="5.0 (X11; Linux x86_64) AppleWebKit/537.36 (KHTML, like Gecko) Chrome/94.0.4606.61 Safari/537.36 Edg/94.0.992.31" etag="zcY5sHtzLdlplzSugpAK" version="15.9.1" type="github">
  <diagram id="Zg7ktQxFH2tfBIdX8OJX" name="Page-1">
    <mxGraphModel dx="1350" dy="773" grid="1" gridSize="10" guides="1" tooltips="1" connect="1" arrows="1" fold="1" page="1" pageScale="1" pageWidth="827" pageHeight="1169" math="0" shadow="0">
      <root>
        <mxCell id="0" />
        <mxCell id="1" parent="0" />
        <mxCell id="N1ahAjAl8G-8Hh2oC9Ne-5" value="" style="edgeStyle=orthogonalEdgeStyle;rounded=0;orthogonalLoop=1;jettySize=auto;html=1;fontColor=#4D4D4D;" edge="1" parent="1" source="N1ahAjAl8G-8Hh2oC9Ne-3" target="N1ahAjAl8G-8Hh2oC9Ne-4">
          <mxGeometry relative="1" as="geometry" />
        </mxCell>
        <mxCell id="N1ahAjAl8G-8Hh2oC9Ne-3" value="" style="shape=image;imageAspect=0;aspect=fixed;verticalLabelPosition=bottom;verticalAlign=top;image=https://camo.githubusercontent.com/40cec02610e68dfbc74d01b8caa7ce5e097d8ae3404e59579d9306a4077fa3aa/68747470733a2f2f746f7263682e6d6c76657273652e6f72672f6373732f696d616765732f6865782f746f726368766973696f6e2e706e67;fontColor=#4D4D4D;" vertex="1" parent="1">
          <mxGeometry x="10" y="240" width="138.77" height="160" as="geometry" />
        </mxCell>
        <mxCell id="N1ahAjAl8G-8Hh2oC9Ne-4" value="mobilenet_v2" style="shape=image;imageAspect=0;aspect=fixed;verticalLabelPosition=bottom;verticalAlign=top;image=https://raw.githubusercontent.com/nnUyi/MobileNet_V2/master/figure/bottleneck_residual_block.png;imageBorder=#F19C99;fontColor=#4D4D4D;" vertex="1" parent="1">
          <mxGeometry x="200" y="262.5" width="123.08" height="115" as="geometry" />
        </mxCell>
        <mxCell id="N1ahAjAl8G-8Hh2oC9Ne-10" value="" style="endArrow=none;html=1;rounded=0;exitX=1;exitY=0.5;exitDx=0;exitDy=0;fontColor=#4D4D4D;" edge="1" parent="1" source="N1ahAjAl8G-8Hh2oC9Ne-4">
          <mxGeometry width="50" height="50" relative="1" as="geometry">
            <mxPoint x="580" y="310" as="sourcePoint" />
            <mxPoint x="400" y="320" as="targetPoint" />
          </mxGeometry>
        </mxCell>
        <mxCell id="N1ahAjAl8G-8Hh2oC9Ne-11" value="" style="endArrow=none;html=1;rounded=0;fontColor=#4D4D4D;" edge="1" parent="1">
          <mxGeometry width="50" height="50" relative="1" as="geometry">
            <mxPoint x="400" y="560" as="sourcePoint" />
            <mxPoint x="400" y="80" as="targetPoint" />
          </mxGeometry>
        </mxCell>
        <mxCell id="N1ahAjAl8G-8Hh2oC9Ne-12" value="" style="endArrow=none;html=1;rounded=0;fontColor=#4D4D4D;" edge="1" parent="1">
          <mxGeometry width="50" height="50" relative="1" as="geometry">
            <mxPoint x="400" y="80" as="sourcePoint" />
            <mxPoint x="840" y="80" as="targetPoint" />
          </mxGeometry>
        </mxCell>
        <mxCell id="N1ahAjAl8G-8Hh2oC9Ne-14" value="&lt;font size=&quot;1&quot;&gt;&lt;i style=&quot;font-size: 16px&quot;&gt;cpu浮点&lt;/i&gt;&lt;/font&gt;" style="edgeLabel;html=1;align=center;verticalAlign=middle;resizable=0;points=[];fontColor=#4D4D4D;" vertex="1" connectable="0" parent="N1ahAjAl8G-8Hh2oC9Ne-12">
          <mxGeometry x="0.3" y="1" relative="1" as="geometry">
            <mxPoint x="-64" as="offset" />
          </mxGeometry>
        </mxCell>
        <mxCell id="N1ahAjAl8G-8Hh2oC9Ne-13" value="" style="endArrow=none;html=1;rounded=0;fontColor=#4D4D4D;" edge="1" parent="1">
          <mxGeometry width="50" height="50" relative="1" as="geometry">
            <mxPoint x="400" y="160" as="sourcePoint" />
            <mxPoint x="840" y="160" as="targetPoint" />
          </mxGeometry>
        </mxCell>
        <mxCell id="N1ahAjAl8G-8Hh2oC9Ne-15" value="&lt;font size=&quot;1&quot;&gt;&lt;i style=&quot;font-size: 16px&quot;&gt;cpu qnnpack&lt;/i&gt;&lt;/font&gt;" style="edgeLabel;html=1;align=center;verticalAlign=middle;resizable=0;points=[];fontColor=#4D4D4D;" vertex="1" connectable="0" parent="N1ahAjAl8G-8Hh2oC9Ne-13">
          <mxGeometry x="0.2833" relative="1" as="geometry">
            <mxPoint x="-61" as="offset" />
          </mxGeometry>
        </mxCell>
        <mxCell id="N1ahAjAl8G-8Hh2oC9Ne-16" value="" style="endArrow=none;html=1;rounded=0;fontColor=#4D4D4D;" edge="1" parent="1">
          <mxGeometry width="50" height="50" relative="1" as="geometry">
            <mxPoint x="400" y="240" as="sourcePoint" />
            <mxPoint x="840" y="240" as="targetPoint" />
          </mxGeometry>
        </mxCell>
        <mxCell id="N1ahAjAl8G-8Hh2oC9Ne-17" value="&lt;font style=&quot;font-size: 16px&quot;&gt;&lt;i&gt;cpu fbgemm&lt;/i&gt;&lt;/font&gt;" style="edgeLabel;html=1;align=center;verticalAlign=middle;resizable=0;points=[];fontColor=#4D4D4D;" vertex="1" connectable="0" parent="N1ahAjAl8G-8Hh2oC9Ne-16">
          <mxGeometry x="0.2833" relative="1" as="geometry">
            <mxPoint x="-61" as="offset" />
          </mxGeometry>
        </mxCell>
        <mxCell id="N1ahAjAl8G-8Hh2oC9Ne-19" value="" style="endArrow=none;html=1;rounded=0;entryX=0;entryY=0.5;entryDx=0;entryDy=0;fontColor=#4D4D4D;" edge="1" parent="1" target="N1ahAjAl8G-8Hh2oC9Ne-25">
          <mxGeometry width="50" height="50" relative="1" as="geometry">
            <mxPoint x="400" y="360" as="sourcePoint" />
            <mxPoint x="520" y="360" as="targetPoint" />
          </mxGeometry>
        </mxCell>
        <mxCell id="N1ahAjAl8G-8Hh2oC9Ne-20" value="&lt;font style=&quot;font-size: 16px&quot;&gt;&lt;i&gt;mlu offline量化&lt;/i&gt;&lt;/font&gt;" style="edgeLabel;html=1;align=center;verticalAlign=middle;resizable=0;points=[];fontColor=#4D4D4D;" vertex="1" connectable="0" parent="N1ahAjAl8G-8Hh2oC9Ne-19">
          <mxGeometry x="0.2833" relative="1" as="geometry">
            <mxPoint x="-23" y="-1" as="offset" />
          </mxGeometry>
        </mxCell>
        <mxCell id="N1ahAjAl8G-8Hh2oC9Ne-21" value="" style="endArrow=none;html=1;rounded=0;fontColor=#4D4D4D;" edge="1" parent="1">
          <mxGeometry width="50" height="50" relative="1" as="geometry">
            <mxPoint x="400" y="480" as="sourcePoint" />
            <mxPoint x="840" y="480" as="targetPoint" />
          </mxGeometry>
        </mxCell>
        <mxCell id="N1ahAjAl8G-8Hh2oC9Ne-22" value="&lt;font style=&quot;font-size: 16px&quot;&gt;cnnl浮点&lt;/font&gt;" style="edgeLabel;html=1;align=center;verticalAlign=middle;resizable=0;points=[];fontColor=#4D4D4D;" vertex="1" connectable="0" parent="N1ahAjAl8G-8Hh2oC9Ne-21">
          <mxGeometry x="0.3" y="1" relative="1" as="geometry">
            <mxPoint x="-64" y="81" as="offset" />
          </mxGeometry>
        </mxCell>
        <mxCell id="N1ahAjAl8G-8Hh2oC9Ne-23" value="" style="endArrow=none;html=1;rounded=0;fontColor=#4D4D4D;" edge="1" parent="1">
          <mxGeometry width="50" height="50" relative="1" as="geometry">
            <mxPoint x="400" y="560" as="sourcePoint" />
            <mxPoint x="840" y="560" as="targetPoint" />
          </mxGeometry>
        </mxCell>
        <mxCell id="N1ahAjAl8G-8Hh2oC9Ne-24" value="&lt;font style=&quot;font-size: 16px&quot;&gt;cnnl自适应量化&lt;/font&gt;" style="edgeLabel;html=1;align=center;verticalAlign=middle;resizable=0;points=[];fontColor=#4D4D4D;" vertex="1" connectable="0" parent="N1ahAjAl8G-8Hh2oC9Ne-23">
          <mxGeometry x="0.3" y="1" relative="1" as="geometry">
            <mxPoint x="-64" y="-79" as="offset" />
          </mxGeometry>
        </mxCell>
        <mxCell id="N1ahAjAl8G-8Hh2oC9Ne-25" value="mobilenet_v2 with scale" style="shape=image;imageAspect=0;aspect=fixed;verticalLabelPosition=bottom;verticalAlign=top;image=https://raw.githubusercontent.com/nnUyi/MobileNet_V2/master/figure/bottleneck_residual_block.png;imageBorder=#F19C99;fontStyle=1;fontColor=#EA6B66;" vertex="1" parent="1">
          <mxGeometry x="560" y="300" width="123.08" height="115" as="geometry" />
        </mxCell>
        <mxCell id="N1ahAjAl8G-8Hh2oC9Ne-26" value="" style="shape=curlyBracket;whiteSpace=wrap;html=1;rounded=1;flipH=1;fontColor=#4D4D4D;rotation=-181;" vertex="1" parent="1">
          <mxGeometry x="720" y="297.5" width="20" height="120" as="geometry" />
        </mxCell>
        <mxCell id="N1ahAjAl8G-8Hh2oC9Ne-29" value="" style="endArrow=none;html=1;rounded=0;fontColor=#4D4D4D;exitX=1;exitY=0.5;exitDx=0;exitDy=0;entryX=0.1;entryY=0.5;entryDx=0;entryDy=0;entryPerimeter=0;" edge="1" parent="1" source="N1ahAjAl8G-8Hh2oC9Ne-25" target="N1ahAjAl8G-8Hh2oC9Ne-26">
          <mxGeometry width="50" height="50" relative="1" as="geometry">
            <mxPoint x="740" y="550" as="sourcePoint" />
            <mxPoint x="790" y="500" as="targetPoint" />
          </mxGeometry>
        </mxCell>
        <mxCell id="N1ahAjAl8G-8Hh2oC9Ne-34" value="" style="endArrow=none;html=1;rounded=0;fontColor=#4D4D4D;" edge="1" parent="1">
          <mxGeometry width="50" height="50" relative="1" as="geometry">
            <mxPoint x="740" y="319.5" as="sourcePoint" />
            <mxPoint x="840" y="319.5" as="targetPoint" />
          </mxGeometry>
        </mxCell>
        <mxCell id="N1ahAjAl8G-8Hh2oC9Ne-36" value="&lt;font style=&quot;font-size: 16px&quot;&gt;&lt;i&gt;cnml&lt;/i&gt;&lt;/font&gt;" style="edgeLabel;html=1;align=center;verticalAlign=middle;resizable=0;points=[];fontColor=#4D4D4D;" vertex="1" connectable="0" parent="N1ahAjAl8G-8Hh2oC9Ne-34">
          <mxGeometry x="0.3333" y="-1" relative="1" as="geometry">
            <mxPoint x="-17" as="offset" />
          </mxGeometry>
        </mxCell>
        <mxCell id="N1ahAjAl8G-8Hh2oC9Ne-35" value="" style="endArrow=none;html=1;rounded=0;fontColor=#4D4D4D;" edge="1" parent="1">
          <mxGeometry width="50" height="50" relative="1" as="geometry">
            <mxPoint x="740" y="400" as="sourcePoint" />
            <mxPoint x="840" y="400" as="targetPoint" />
          </mxGeometry>
        </mxCell>
        <mxCell id="N1ahAjAl8G-8Hh2oC9Ne-37" value="&lt;i&gt;&lt;font style=&quot;font-size: 16px&quot;&gt;cnnl&lt;/font&gt;&lt;/i&gt;" style="edgeLabel;html=1;align=center;verticalAlign=middle;resizable=0;points=[];fontColor=#4D4D4D;" vertex="1" connectable="0" parent="N1ahAjAl8G-8Hh2oC9Ne-35">
          <mxGeometry x="0.4048" y="2" relative="1" as="geometry">
            <mxPoint x="-20" as="offset" />
          </mxGeometry>
        </mxCell>
        <mxCell id="N1ahAjAl8G-8Hh2oC9Ne-38" value="top1=71.096、top5=89.892" style="text;html=1;strokeColor=none;fillColor=none;align=center;verticalAlign=middle;whiteSpace=wrap;rounded=0;fontSize=16;fontColor=#4D4D4D;" vertex="1" parent="1">
          <mxGeometry x="840" y="297.5" width="220" height="40" as="geometry" />
        </mxCell>
        <mxCell id="N1ahAjAl8G-8Hh2oC9Ne-39" value="top1=&lt;font color=&quot;#ea6b66&quot;&gt;63.462&lt;/font&gt;、top5=84.932" style="text;html=1;strokeColor=none;fillColor=none;align=center;verticalAlign=middle;whiteSpace=wrap;rounded=0;fontSize=16;fontColor=#4D4D4D;" vertex="1" parent="1">
          <mxGeometry x="840" y="377.5" width="220" height="40" as="geometry" />
        </mxCell>
        <mxCell id="N1ahAjAl8G-8Hh2oC9Ne-40" value="top1=71.878、top5=90.286" style="text;html=1;strokeColor=none;fillColor=none;align=center;verticalAlign=middle;whiteSpace=wrap;rounded=0;fontSize=16;fontColor=#4D4D4D;" vertex="1" parent="1">
          <mxGeometry x="840" y="60" width="220" height="40" as="geometry" />
        </mxCell>
        <mxCell id="N1ahAjAl8G-8Hh2oC9Ne-41" value="top1=71.878、top5=90.286" style="text;html=1;strokeColor=none;fillColor=none;align=center;verticalAlign=middle;whiteSpace=wrap;rounded=0;fontSize=16;fontColor=#4D4D4D;" vertex="1" parent="1">
          <mxGeometry x="840" y="540" width="220" height="40" as="geometry" />
        </mxCell>
      </root>
    </mxGraphModel>
  </diagram>
</mxfile>
